<?xml version="1.0" encoding="UTF-8"?>
<svg xmlns="http://www.w3.org/2000/svg" xmlns:xlink="http://www.w3.org/1999/xlink" version="1.1" viewBox="0 0 24 24">
  <!-- Generator: Adobe Illustrator 29.8.1, SVG Export Plug-In . SVG Version: 2.1.1 Build 2)  -->
  <defs>
    <style>
      .st0 {
        mask: url(#mask);
      }

      .st1 {
        filter: url(#luminosity-noclip);
      }

      .st2 {
        stroke: #000;
        stroke-miterlimit: 10;
        stroke-width: 1.2px;
      }

      .st3 {
        fill: #fff;
      }

      .st4 {
        fill: #575e66;
      }
    </style>
    <filter id="luminosity-noclip" x="3" y="3" width="18" height="18" color-interpolation-filters="sRGB" filterUnits="userSpaceOnUse">
      <feFlood flood-color="#fff" result="bg"/>
      <feBlend in="SourceGraphic" in2="bg"/>
    </filter>
    <mask id="mask" x="3" y="3" width="18" height="18" maskUnits="userSpaceOnUse">
      <g class="st1">
        <g>
          <circle class="st2" cx="10" cy="7" r="3.2"/>
          <circle class="st2" cx="8.2" cy="16.1" r="3.2"/>
          <circle class="st2" cx="16.5" cy="12.7" r="3.2"/>
        </g>
      </g>
    </mask>
  </defs>
  <g id="Behind">
    <rect class="st4" width="24" height="24"/>
  </g>
  <g class="st0">
    <g id="background">
      <path class="st3" d="M4.4,21c-.3,0-.6-.2-.9-.5s-.4-.6-.5-.9L19.6,3c.4,0,.7.3.9.5s.4.6.5.9L4.4,21ZM3,14.7v-2.8L11.9,3h2.8L3,14.7ZM3,7v-2c0-.6.2-1,.6-1.4.4-.4.9-.6,1.4-.6h2L3,7ZM17,21l4-4v2c0,.6-.2,1-.6,1.4-.4.4-.9.6-1.4.6h-2ZM9.3,21l11.7-11.7v2.8l-8.9,8.9h-2.8Z"/>
    </g>
  </g>
  <g id="fuel">
    <circle class="st3" cx="10" cy="7" r="2.5"/>
    <circle class="st3" cx="8.2" cy="16.1" r="2.5"/>
    <circle class="st3" cx="16.5" cy="12.7" r="2.5"/>
  </g>
</svg>